{
	"asset":{
		"generator":"Khronos glTF Blender I/O v4.0.44",
		"version":"2.0"
	},
	"extensionsUsed":[
		"KHR_materials_specular",
		"KHR_materials_ior"
	],
	"scene":0,
	"scenes":[
		{
			"name":"Scene",
			"nodes":[
				0,
				1
			]
		}
	],
	"nodes":[
		{
			"mesh":0,
			"name":"Glasses",
			"rotation":[
				0.7071068286895752,
				0,
				0,
				0.7071068286895752
			],
			"translation":[
				0,
				0,
				0.006291380617767572
			]
		},
		{
			"mesh":1,
			"name":"Plano"
		}
	],
	"materials":[
		{
			"doubleSided":true,
			"name":"oculos",
			"pbrMetallicRoughness":{
				"baseColorTexture":{
					"index":0
				},
				"metallicFactor":0,
				"roughnessFactor":0.525658369064331
			}
		},
		{
			"doubleSided":true,
			"extensions":{
				"KHR_materials_specular":{
					"specularFactor":0.6000000238418579
				},
				"KHR_materials_ior":{
					"ior":1.4500000476837158
				}
			},
			"name":"Cristl",
			"pbrMetallicRoughness":{
				"metallicFactor":0,
				"roughnessFactor":0
			}
		}
	],
	"meshes":[
		{
			"name":"Glasses",
			"primitives":[
				{
					"attributes":{
						"POSITION":0,
						"NORMAL":1,
						"TEXCOORD_0":2
					},
					"indices":3,
					"material":0
				}
			]
		},
		{
			"name":"Plano",
			"primitives":[
				{
					"attributes":{
						"POSITION":4,
						"NORMAL":5,
						"TEXCOORD_0":6
					},
					"indices":7,
					"material":1
				}
			]
		}
	],
	"textures":[
		{
			"sampler":0,
			"source":0
		}
	],
	"images":[
		{
			"mimeType":"image/png",
			"name":"glasses",
			"uri":"glasses.png"
		}
	],
	"accessors":[
		{
			"bufferView":0,
			"componentType":5126,
			"count":461,
			"max":[
				0.7782109975814819,
				0.4859580099582672,
				0.24887000024318695
			],
			"min":[
				-0.7687879800796509,
				-0.8663790225982666,
				-0.25847500562667847
			],
			"type":"VEC3"
		},
		{
			"bufferView":1,
			"componentType":5126,
			"count":461,
			"type":"VEC3"
		},
		{
			"bufferView":2,
			"componentType":5126,
			"count":461,
			"type":"VEC2"
		},
		{
			"bufferView":3,
			"componentType":5123,
			"count":2502,
			"type":"SCALAR"
		},
		{
			"bufferView":4,
			"componentType":5126,
			"count":40,
			"max":[
				0.7052831649780273,
				0.2385534644126892,
				0.4680551588535309
			],
			"min":[
				-0.697801947593689,
				-0.22410856187343597,
				0.4382362365722656
			],
			"type":"VEC3"
		},
		{
			"bufferView":5,
			"componentType":5126,
			"count":40,
			"type":"VEC3"
		},
		{
			"bufferView":6,
			"componentType":5126,
			"count":40,
			"type":"VEC2"
		},
		{
			"bufferView":7,
			"componentType":5123,
			"count":108,
			"type":"SCALAR"
		}
	],
	"bufferViews":[
		{
			"buffer":0,
			"byteLength":5532,
			"byteOffset":0,
			"target":34962
		},
		{
			"buffer":0,
			"byteLength":5532,
			"byteOffset":5532,
			"target":34962
		},
		{
			"buffer":0,
			"byteLength":3688,
			"byteOffset":11064,
			"target":34962
		},
		{
			"buffer":0,
			"byteLength":5004,
			"byteOffset":14752,
			"target":34963
		},
		{
			"buffer":0,
			"byteLength":480,
			"byteOffset":19756,
			"target":34962
		},
		{
			"buffer":0,
			"byteLength":480,
			"byteOffset":20236,
			"target":34962
		},
		{
			"buffer":0,
			"byteLength":320,
			"byteOffset":20716,
			"target":34962
		},
		{
			"buffer":0,
			"byteLength":216,
			"byteOffset":21036,
			"target":34963
		}
	],
	"samplers":[
		{
			"magFilter":9729,
			"minFilter":9987
		}
	],
	"buffers":[
		{
			"byteLength":21252,
			"uri":"anteojos.bin"
		}
	]
}
